<?xml version="1.0" encoding="UTF-8"?>
<svg version="1.1" xmlns="http://www.w3.org/2000/svg" width="1024" height="1024">
<path d="M0 0 C6.57355636 4.66865645 12.18049246 11.4407125 13.58203125 19.59375 C14.34742819 29.55645774 13.99113788 38.09734911 7.5703125 46.1015625 C6.17585404 47.65874951 4.75076556 49.18934814 3.2890625 50.68359375 C0.57046544 53.7256852 0.4319089 56.56091959 0.265625 60.48046875 C0.22373047 61.41826172 0.18183594 62.35605469 0.13867188 63.32226562 C0.09935547 64.29873047 0.06003906 65.27519531 0.01953125 66.28125 C-0.04524414 67.76334961 -0.04524414 67.76334961 -0.11132812 69.27539062 C-0.21738529 71.71470546 -0.31944589 74.15412113 -0.41796875 76.59375 C0.71016235 76.5796106 0.71016235 76.5796106 1.86108398 76.56518555 C10.8123152 76.50336859 19.71297731 76.86818929 28.64453125 77.40625 C29.37460388 77.44943359 30.10467651 77.49261719 30.85687256 77.53710938 C41.33215216 78.16506304 51.77039343 78.99231885 62.20703125 80.09375 C63.34277588 80.21210205 64.47852051 80.3304541 65.64868164 80.45239258 C75.97427042 81.60628632 85.63368875 82.94411307 92.89453125 91.03125 C98.41637693 97.97761438 99.00027142 105.52549913 98.14453125 114.15625 C97.95992975 115.6357812 97.77291528 117.11501623 97.58203125 118.59375 C89.7292792 118.90762758 82.15971234 118.03430539 74.3833313 116.99819946 C62.82643063 115.47034933 51.27838172 114.1949584 39.64453125 113.40625 C38.09028442 113.29917725 38.09028442 113.29917725 36.50463867 113.18994141 C28.37505966 112.67761728 20.23881884 112.37649002 12.09936523 112.0690918 C10.89412956 112.0231765 9.68889389 111.9772612 8.44713593 111.92995453 C5.49211762 111.8174421 2.53708276 111.70538634 -0.41796875 111.59375 C-0.38068506 127.79774409 -0.32065365 144.00147325 -0.23406601 160.20527172 C-0.19437691 167.73019421 -0.1619333 175.25501365 -0.14697266 182.7800293 C-0.13390326 189.34428727 -0.10680522 195.90831754 -0.06335568 202.47244722 C-0.04085859 205.94322254 -0.02505091 209.41371829 -0.0260849 212.88457298 C-0.0269792 216.77378492 0.00346911 220.66243248 0.03613281 224.55151367 C0.03110245 225.68296814 0.02607208 226.81442261 0.02088928 227.98016357 C0.16551365 239.18658939 2.49188727 250.39549719 10.58203125 258.59375 C16.35458476 264.07822982 21.82294437 266.91864489 29.58203125 268.59375 C30.53078125 268.820625 31.47953125 269.0475 32.45703125 269.28125 C52.16575831 271.25212271 72.70371745 266.76174665 88.58203125 254.59375 C101.11379197 243.86697539 108.10273013 229.97549125 115.58203125 215.59375 C116.57203125 215.59375 117.56203125 215.59375 118.58203125 215.59375 C121.3738797 238.01787677 120.37888279 264.56133904 106.58203125 283.59375 C94.12323819 296.7236256 72.78034961 301.42344259 55.58203125 303.59375 C54.87771973 303.68317871 54.1734082 303.77260742 53.44775391 303.86474609 C30.84278136 306.49994389 8.94701641 301.70975152 -9.078125 287.49609375 C-24.57828526 274.24030058 -32.47730644 255.71246941 -34.21449089 235.66588402 C-34.55515802 230.52244941 -34.54846097 225.3904049 -34.53149414 220.23754883 C-34.53164017 219.0557605 -34.53178619 217.87397217 -34.53193665 216.65637207 C-34.53124537 212.78782249 -34.52349003 208.91932232 -34.515625 205.05078125 C-34.51319875 202.35365323 -34.51228619 199.65652525 -34.51133728 196.95939636 C-34.5082437 190.60967139 -34.50005721 184.25996388 -34.48998779 177.91024655 C-34.47876499 170.67433955 -34.47330074 163.43843166 -34.46829236 156.20251811 C-34.4578727 141.33291905 -34.44031192 126.46333628 -34.41796875 111.59375 C-40.28517789 111.83343819 -46.15199287 112.0809591 -52.01860046 112.33494568 C-54.00352084 112.4198699 -55.98852528 112.50285726 -57.97361755 112.58366394 C-79.06355788 113.44486688 -100.22885175 115.02836243 -121.11987305 118.14624023 C-124.96066882 118.66738752 -128.54941801 118.66161931 -132.41796875 118.59375 C-132.49946467 115.57236433 -132.55870296 112.55321095 -132.60546875 109.53125 C-132.63060547 108.68369141 -132.65574219 107.83613281 -132.68164062 106.96289062 C-132.75748942 100.41461133 -131.85224196 95.84748152 -127.83984375 90.484375 C-116.24234487 79.1036518 -98.94270628 80.17636183 -83.60546875 79.03125 C-81.96936815 78.90472142 -80.3333002 78.77777005 -78.69726562 78.65039062 C-63.93501027 77.51060538 -49.23474261 76.38538912 -34.41796875 76.59375 C-33.53497598 61.30051432 -33.53497598 61.30051432 -39.79296875 48.03125 C-41.3297607 46.54701934 -42.87103527 45.06740768 -44.41796875 43.59375 C-48.94134341 37.03588948 -50.09482863 29.55762242 -48.88671875 21.74609375 C-46.91080779 12.67336924 -42.30128739 4.77127707 -34.390625 -0.375 C-23.44120688 -6.09905224 -10.74645124 -6.24995549 0 0 Z " fill="#1C3F6C" transform="translate(529.41796875,337.40625)"/>
<path d="M0 0 C1.84375 0.18359375 1.84375 0.18359375 4 1 C5.28125 3.16015625 5.28125 3.16015625 6.5 6.0625 C12.7781568 19.36207145 22.87255568 30.48303859 33 41 C33.5775 41.6290625 34.155 42.258125 34.75 42.90625 C50.26098633 59.34789551 71.19161195 70.70593757 91 81 C92.01247803 81.52787109 92.01247803 81.52787109 93.04541016 82.06640625 C131.55626946 101.8442099 180.6587718 113.18723463 223.2734375 101.5859375 C226.25077661 100.94610818 228.96361453 100.90147422 232 101 C230.47973326 105.16173021 227.50802069 107.18489139 224 109.625 C223.38697021 110.05522461 222.77394043 110.48544922 222.14233398 110.92871094 C201.40576523 125.16490946 178.03331881 134.82935874 153 138 C152.17628906 138.11085938 151.35257813 138.22171875 150.50390625 138.3359375 C113.02684104 142.77322202 74.39820049 130.13546769 45 107 C36.24784203 100.09139169 28.70188418 92.97922347 22 84 C21.32582031 83.15179687 20.65164063 82.30359375 19.95703125 81.4296875 C2.7587912 59.14183289 -2.24324641 33.64768409 -1 6 C-0.72416704 3.99126226 -0.42576898 1.98238036 0 0 Z " fill="#1D406C" transform="translate(376,553)"/>
<path d="M0 0 C6.57355636 4.66865645 12.18049246 11.4407125 13.58203125 19.59375 C14.34742819 29.55645774 13.99113788 38.09734911 7.5703125 46.1015625 C6.17585404 47.65874951 4.75076556 49.18934814 3.2890625 50.68359375 C0.57046544 53.7256852 0.4319089 56.56091959 0.265625 60.48046875 C0.2027832 61.8871582 0.2027832 61.8871582 0.13867188 63.32226562 C0.09935547 64.29873047 0.06003906 65.27519531 0.01953125 66.28125 C-0.04524414 67.76334961 -0.04524414 67.76334961 -0.11132812 69.27539062 C-0.21738529 71.71470546 -0.31944589 74.15412113 -0.41796875 76.59375 C0.33411865 76.58432373 1.08620605 76.57489746 1.86108398 76.56518555 C10.8123152 76.50336859 19.71297731 76.86818929 28.64453125 77.40625 C29.7396402 77.47102539 29.7396402 77.47102539 30.85687256 77.53710938 C41.33215216 78.16506304 51.77039343 78.99231885 62.20703125 80.09375 C63.34277588 80.21210205 64.47852051 80.3304541 65.64868164 80.45239258 C75.97427042 81.60628632 85.63368875 82.94411307 92.89453125 91.03125 C98.41637693 97.97761438 99.00027142 105.52549913 98.14453125 114.15625 C97.95992975 115.6357812 97.77291528 117.11501623 97.58203125 118.59375 C88.72531858 118.85398642 80.15549037 117.83877306 71.39453125 116.71875 C69.97728098 116.54242582 68.5599634 116.36664186 67.14257812 116.19140625 C55.60956667 114.7581086 44.08524803 113.24974478 32.58203125 111.59375 C32.58203125 111.26375 32.58203125 110.93375 32.58203125 110.59375 C45.35238815 110.22792977 57.62220519 111.32789463 70.26953125 113.03125 C72.06823469 113.26463482 73.8670628 113.49706091 75.66601562 113.72851562 C89.13133029 115.47509795 89.13133029 115.47509795 95.58203125 116.59375 C95.62122021 102.78365661 95.62122021 102.78365661 89.16015625 91.08203125 C83.14858617 85.67471693 76.67124174 85.00840474 68.95703125 84.09375 C67.90016113 83.96629395 66.84329102 83.83883789 65.75439453 83.70751953 C50.64239363 81.94958837 35.48178499 80.76079416 20.2734375 80.3203125 C19.58262085 80.29999969 18.8918042 80.27968689 18.18005371 80.25875854 C14.80406748 80.16273142 11.42915333 80.08321402 8.05224609 80.02294922 C6.84391113 79.99475098 5.63557617 79.96655273 4.390625 79.9375 C3.31611084 79.91880859 2.24159668 79.90011719 1.13452148 79.88085938 C-1.41796875 79.59375 -1.41796875 79.59375 -3.41796875 77.59375 C-3.87085976 74.19767129 -3.74198555 70.76654437 -3.73046875 67.34375 C-3.74658203 66.40144531 -3.76269531 65.45914063 -3.77929688 64.48828125 C-3.78455402 56.99159921 -2.31528544 52.23488221 3.01953125 46.78125 C9.05165607 40.02066943 11.29780917 33.75282551 10.97265625 24.66015625 C10.09412798 17.76370932 7.80287809 10.39128493 2.58203125 5.59375 C-5.07454706 0.51419123 -13.13597388 -2.64384932 -22.41796875 -1.40625 C-28.23255979 0.27486872 -32.84402508 2.59154928 -37.41796875 6.59375 C-38.07796875 6.59375 -38.73796875 6.59375 -39.41796875 6.59375 C-39.68609375 7.13 -39.95421875 7.66625 -40.23046875 8.21875 C-41.12222303 10.00225856 -42.04404959 11.77078198 -42.98046875 13.53125 C-46.19400894 20.37748779 -46.58570755 28.68609101 -44.83984375 36.0234375 C-43.44372199 39.58989401 -42.11876568 42.00754121 -39.1484375 44.4921875 C-35.11925579 47.90588791 -32.75602874 50.20511585 -32.00927734 55.48144531 C-31.62256492 62.86057189 -31.92537306 70.22586571 -32.41796875 77.59375 C-34.41796875 75.59375 -34.41796875 75.59375 -34.59399414 73.61352539 C-34.56813232 72.81422607 -34.54227051 72.01492676 -34.515625 71.19140625 C-34.15291636 58.72404963 -34.15291636 58.72404963 -39.79296875 48.09375 C-41.33138256 46.59041403 -42.87279087 45.09013279 -44.41796875 43.59375 C-48.93773474 37.03080213 -50.09540652 29.56135901 -48.88671875 21.74609375 C-46.91080779 12.67336924 -42.30128739 4.77127707 -34.390625 -0.375 C-23.44120688 -6.09905224 -10.74645124 -6.24995549 0 0 Z " fill="#011F51" transform="translate(529.41796875,337.40625)"/>
<path d="M0 0 C0.66 0.33 1.32 0.66 2 1 C2.67882964 3.27067034 3.26722692 5.56861089 3.8125 7.875 C5.2999627 13.90788876 7.27427901 19.3388333 10.046875 24.92578125 C11 27 11 27 11 29 C11.66 29 12.32 29 13 29 C13.45375 30.051875 13.9075 31.10375 14.375 32.1875 C28.04500817 59.19525919 57.14995234 78.93032411 85 89 C122.70901504 101.24408004 162.72881025 100.38346816 198.57275391 82.39453125 C207.17433395 77.89561592 215.21017077 72.78992693 223 67 C221.98421875 67.2165625 220.9684375 67.433125 219.921875 67.65625 C211.51230721 69.38058024 203.63031473 70.44132291 195 70 C195.33 69.34 195.66 68.68 196 68 C198.265625 67.42163086 198.265625 67.42163086 201.25 66.96484375 C202.33410156 66.79533203 203.41820312 66.62582031 204.53515625 66.45117188 C205.67855469 66.28166016 206.82195312 66.11214844 208 65.9375 C209.11246094 65.76412109 210.22492188 65.59074219 211.37109375 65.41210938 C217.56938893 64.45936789 223.76191567 63.6409896 230 63 C228.16771764 67.07875471 225.60697976 69.11605745 222 71.625 C221.38697021 72.05522461 220.77394043 72.48544922 220.14233398 72.92871094 C199.40576523 87.16490946 176.03331881 96.82935874 151 100 C150.17628906 100.11085938 149.35257813 100.22171875 148.50390625 100.3359375 C111.02684104 104.77322202 72.39820049 92.13546769 43 69 C34.24784203 62.09139169 26.70188418 54.97922347 20 46 C19.32582031 45.15179687 18.65164063 44.30359375 17.95703125 43.4296875 C9.15375008 32.02117998 2.23996125 18.09294621 -1 4 C-0.62109375 1.578125 -0.62109375 1.578125 0 0 Z " fill="#032657" transform="translate(378,591)"/>
<path d="M0 0 C1.84375 0.18359375 1.84375 0.18359375 4 1 C5.28125 3.16015625 5.28125 3.16015625 6.5 6.0625 C12.7781568 19.36207145 22.87255568 30.48303859 33 41 C33.5775 41.6290625 34.155 42.258125 34.75 42.90625 C50.26098633 59.34789551 71.19161195 70.70593757 91 81 C92.01247803 81.52787109 92.01247803 81.52787109 93.04541016 82.06640625 C117.01037997 94.37395991 143.36276011 101.70498882 170 105 C171.04800781 105.13277344 172.09601563 105.26554688 173.17578125 105.40234375 C180.76522672 106.22312822 188.37693556 106.09258783 196 106 C196 106.66 196 107.32 196 108 C177.72530447 117.13734777 141.03924174 103.60591094 122.875 98 C122.1418457 97.77530029 121.40869141 97.55060059 120.65332031 97.3190918 C114.54260726 95.35651191 108.80475179 92.72223537 103 90 C102.10667969 89.59120605 101.21335937 89.18241211 100.29296875 88.76123047 C60.60100794 70.59065348 23.8772612 45.36171309 3 6 C2.67 6 2.34 6 2 6 C1.67 12.93 1.34 19.86 1 27 C0.67 27 0.34 27 0 27 C-0.19825948 23.62554272 -0.38167324 20.25043278 -0.5625 16.875 C-0.61857422 15.92367187 -0.67464844 14.97234375 -0.73242188 13.9921875 C-0.98398897 9.16209924 -1.08138496 4.75809383 0 0 Z " fill="#012153" transform="translate(376,553)"/>
<path d="M0 0 C2.48845357 3.73268035 2.2786993 6.61753374 2.25537109 10.93701172 C2.25899155 11.74562149 2.262612 12.55423126 2.26634216 13.38734436 C2.27323921 15.14538316 2.27574102 16.90344339 2.27439499 18.66149521 C2.27342886 21.4546624 2.28638643 24.2474456 2.30337524 27.04055786 C2.34959234 34.98306204 2.37420902 42.92553011 2.38085938 50.86816406 C2.38590969 55.72826611 2.41034682 60.58797317 2.44618607 65.44794083 C2.45591309 67.29045348 2.45835527 69.13302101 2.45301437 70.97555161 C2.41508873 84.71695052 2.71693405 98.57952114 13 109 C18.77255351 114.48447982 24.24091312 117.32489489 32 119 C32.94875 119.226875 33.8975 119.45375 34.875 119.6875 C54.58372706 121.65837271 75.1216862 117.16799665 91 105 C103.53176072 94.27322539 110.52069888 80.38174125 118 66 C118.99 66 119.98 66 121 66 C121.495 70.95 121.495 70.95 122 76 C120.515 75.505 120.515 75.505 119 75 C118.67 74.01 118.34 73.02 118 72 C117.5875 72.88300781 117.175 73.76601563 116.75 74.67578125 C106.89233162 95.35284176 92.85235735 111.41283788 71 119.375 C55.28026373 124.08051046 36.47881523 125.91667964 21.28125 118.7109375 C10.69214247 112.74659079 4.36662854 105.11274135 0.94900513 93.3972168 C-0.15575102 88.86911853 -0.26859928 84.56439651 -0.22705078 79.921875 C-0.22734283 79.05263901 -0.22763489 78.18340302 -0.22793579 77.28782654 C-0.22655299 74.44177943 -0.21104162 71.59600084 -0.1953125 68.75 C-0.19157863 66.76603336 -0.18873343 64.78206486 -0.18673706 62.7980957 C-0.17913003 57.59656614 -0.15950687 52.39514968 -0.1373291 47.19366455 C-0.11680736 41.87782318 -0.10772185 36.56196339 -0.09765625 31.24609375 C-0.07625808 20.83067969 -0.04215773 10.41534928 0 0 Z " fill="#012257" transform="translate(527,487)"/>
<path d="M0 0 C0.33 0 0.66 0 1 0 C2.80888425 19.04217341 0.60418985 39.9923109 -11 56 C-23.45879306 69.1298756 -44.80168164 73.82969259 -62 76 C-63.05646729 76.13414307 -63.05646729 76.13414307 -64.13427734 76.27099609 C-86.73924989 78.90619389 -108.63501484 74.11600152 -126.66015625 59.90234375 C-139.84043895 48.63051828 -148.08050691 33.0520711 -151 16 C-151.02114909 12.56115819 -150.72710915 9.35892815 -150 6 C-149.67 6 -149.34 6 -149 6 C-148.85304688 7.12535156 -148.70609375 8.25070312 -148.5546875 9.41015625 C-145.91431311 28.08722314 -139.60386876 45.79020883 -124.56640625 58.16015625 C-104.38644946 72.62706592 -80.57645508 76.13558972 -56.19506836 72.12915039 C-53.099898 71.52581167 -50.05228713 70.79044655 -47 70 C-45.91203125 69.73316406 -44.8240625 69.46632813 -43.703125 69.19140625 C-32.95478061 66.24216541 -17.15620046 60.87803652 -11.12109375 50.890625 C-10.54127899 49.68586721 -9.98091307 48.47160907 -9.4375 47.25 C-8.99144409 46.25709961 -8.99144409 46.25709961 -8.53637695 45.24414062 C-2.22043667 30.63261128 -1.01658477 15.7198718 0 0 Z " fill="#042555" transform="translate(647,565)"/>
<path d="M0 0 C-5.3887258 1.04822552 -10.73831637 1.35209713 -16.20703125 1.6484375 C-18.24807231 1.76575302 -20.28908704 1.88352728 -22.33007812 2.00170898 C-23.92057983 2.09269363 -23.92057983 2.09269363 -25.54321289 2.18551636 C-47.30380279 3.41089152 -47.30380279 3.41089152 -69 5.4375 C-70.4072937 5.58421143 -70.4072937 5.58421143 -71.84301758 5.73388672 C-78.79428369 6.60385792 -85.12275488 8.54496687 -89.875 13.9375 C-93.64285263 19.36764056 -94.34880272 23.87365084 -94.625 30.3125 C-94.66367187 31.05306641 -94.70234375 31.79363281 -94.7421875 32.55664062 C-94.83581705 34.37071309 -94.91896851 36.18532116 -95 38 C-93.92492187 37.82984375 -92.84984375 37.6596875 -91.7421875 37.484375 C-60.77856524 32.7394127 -30.32473514 30.28819864 1 31 C1 31.66 1 32.32 1 33 C-0.12865479 33.03963867 -1.25730957 33.07927734 -2.42016602 33.12011719 C-23.27575276 33.87245659 -44.05446343 34.85032566 -64.8125 37.0625 C-65.6374295 37.15035767 -66.46235901 37.23821533 -67.31228638 37.32873535 C-76.52276815 38.31531465 -76.52276815 38.31531465 -85.7019043 39.55249023 C-89.54270007 40.07363752 -93.13144926 40.06786931 -97 40 C-97.08149592 36.97861433 -97.14073421 33.95946095 -97.1875 30.9375 C-97.21263672 30.08994141 -97.23777344 29.24238281 -97.26367188 28.36914062 C-97.33952067 21.82086133 -96.43427321 17.25373152 -92.421875 11.890625 C-80.82437612 0.5099018 -63.52473753 1.58261183 -48.1875 0.4375 C-46.5513994 0.31097142 -44.91533145 0.18402005 -43.27929688 0.05664062 C-5.15530774 -2.88560367 -5.15530774 -2.88560367 0 0 Z " fill="#012052" transform="translate(494,416)"/>
<path d="M0 0 C2.51392023 3.77088034 2.32113202 6.79936077 2.35058594 11.17163086 C2.36384415 12.00445084 2.37710236 12.83727081 2.39076233 13.69532776 C2.43188736 16.45179838 2.45859468 19.20818995 2.484375 21.96484375 C2.50816416 23.87912188 2.53252488 25.79339298 2.55743408 27.70765686 C2.60737503 31.72164677 2.65015515 35.73563413 2.68798828 39.74975586 C2.73709535 44.89603485 2.80420972 50.04189232 2.87673569 55.18788815 C2.93042168 59.14173941 2.97439695 63.09565317 3.01544952 67.04965401 C3.03635211 68.94711449 3.06031982 70.84454375 3.08739471 72.74192619 C3.12381495 75.39428554 3.14713116 78.04644653 3.16699219 80.69897461 C3.18039139 81.48404388 3.19379059 82.26911316 3.20759583 83.07797241 C3.22213073 86.87490745 3.14864562 89.7838898 1 93 C-0.17813828 88.79262499 -0.13260152 84.71531431 -0.11352539 80.37597656 C-0.11367142 79.50732468 -0.11381744 78.63867279 -0.1139679 77.74369812 C-0.11327191 74.87598157 -0.10549415 72.00833019 -0.09765625 69.140625 C-0.09579096 67.1509403 -0.09436758 65.16125515 -0.09336853 63.17156982 C-0.08955212 57.93714121 -0.07972929 52.70274039 -0.06866455 47.46832275 C-0.05843162 42.12602108 -0.05386687 36.78371491 -0.04882812 31.44140625 C-0.03810626 20.9609253 -0.02104032 10.48046496 0 0 Z " fill="#001053" transform="translate(527,487)"/>
<path d="M0 0 C1.94024048 0.07069702 1.94024048 0.07069702 3.91967773 0.14282227 C4.9496714 0.17823875 4.9496714 0.17823875 6.00047302 0.21437073 C8.20160776 0.29117032 10.40240492 0.37512354 12.60327148 0.45922852 C14.09218705 0.51243295 15.58111928 0.56517344 17.07006836 0.61743164 C20.72717821 0.74680703 24.3840182 0.8826009 28.04077148 1.02172852 C28.04077148 2.01172852 28.04077148 3.00172852 28.04077148 4.02172852 C13.19077148 3.52672852 13.19077148 3.52672852 -1.95922852 3.02172852 C-1.95922852 14.57172852 -1.95922852 26.12172852 -1.95922852 38.02172852 C-2.61922852 37.69172852 -3.27922852 37.36172852 -3.95922852 37.02172852 C-3.98387862 31.91308956 -4.00206459 26.80448492 -4.01416016 21.69580078 C-4.01920056 19.95653684 -4.02603282 18.21727715 -4.03466797 16.47802734 C-4.04674643 13.98346915 -4.0524596 11.48896678 -4.05688477 8.99438477 C-4.06204605 8.21209 -4.06720734 7.42979523 -4.07252502 6.62379456 C-4.07272078 4.75605737 -4.02122546 2.88843647 -3.95922852 1.02172852 C-2.95922852 0.02172852 -2.95922852 0.02172852 0 0 Z " fill="#00184A" transform="translate(530.959228515625,445.978271484375)"/>
<path d="M0 0 C0.33 0 0.66 0 1 0 C1.02505615 1.05501709 1.0501123 2.11003418 1.07592773 3.19702148 C1.16984109 7.09770628 1.27010034 10.99820625 1.37231445 14.89868164 C1.41572439 16.58939299 1.45739489 18.28014991 1.49731445 19.97094727 C1.55487094 22.39613606 1.61860649 24.82109415 1.68359375 27.24609375 C1.70030624 28.00651474 1.71701874 28.76693573 1.73423767 29.55039978 C1.52091268 33.07082031 1.52091268 33.07082031 3 36 C3.04080783 37.99958364 3.04254356 40.00045254 3 42 C2.67 42 2.34 42 2 42 C1.67 68.4 1.34 94.8 1 122 C0.67 122 0.34 122 0 122 C0 81.74 0 41.48 0 0 Z " fill="#0C3160" transform="translate(526,448)"/>
<path d="M0 0 C0.99 0 1.98 0 3 0 C3.33 3.3 3.66 6.6 4 10 C3.01 9.67 2.02 9.34 1 9 C0.67 8.01 0.34 7.02 0 6 C-1.65 9.3 -3.3 12.6 -5 16 C-5.99 15.67 -6.98 15.34 -8 15 C-5.36 10.05 -2.72 5.1 0 0 Z " fill="#011A4A" transform="translate(645,553)"/>
<path d="M0 0 C0.33 0 0.66 0 1 0 C2.03863773 6.23182639 1.83288874 11.74692761 1 18 C-1.97 18 -4.94 18 -8 18 C-7.67 17.34 -7.34 16.68 -7 16 C-5.02 16 -3.04 16 -1 16 C-1.01160156 15.18015625 -1.02320313 14.3603125 -1.03515625 13.515625 C-1.04869141 11.89914062 -1.04869141 11.89914062 -1.0625 10.25 C-1.07410156 9.18265625 -1.08570313 8.1153125 -1.09765625 7.015625 C-1.01510087 4.46631499 -0.74617558 2.42066409 0 0 Z " fill="#012357" transform="translate(626,438)"/>
<path d="M0 0 C0.33 0 0.66 0 1 0 C2.33257403 16.70842825 2.33257403 16.70842825 1 25 C0.34 24.67 -0.32 24.34 -1 24 C-1.12867289 15.93649887 -0.79681084 8.02502344 0 0 Z " fill="#011B51" transform="translate(647,565)"/>
<path d="M0 0 C1.79158489 -0.02696365 3.58328473 -0.04637917 5.375 -0.0625 C6.37273438 -0.07410156 7.37046875 -0.08570313 8.3984375 -0.09765625 C11 0 11 0 13 1 C13 1.66 13 2.32 13 3 C8.71 3 4.42 3 0 3 C0 2.01 0 1.02 0 0 Z " fill="#042A5D" transform="translate(528,414)"/>
<path d="M0 0 C2.00390625 0.26953125 2.00390625 0.26953125 4.5625 0.8125 C5.90634766 1.09673828 5.90634766 1.09673828 7.27734375 1.38671875 C10.86955139 2.19586739 14.43563999 3.07590667 18 4 C15.39866749 5.73004282 14.24037924 6.03226567 11.08984375 5.609375 C10.04957031 5.32578125 9.00929688 5.0421875 7.9375 4.75 C6.89464844 4.47671875 5.85179687 4.2034375 4.77734375 3.921875 C2 3 2 3 -1 1 C-0.67 0.67 -0.34 0.34 0 0 Z " fill="#012C5A" transform="translate(504,650)"/>
<path d="M0 0 C2.24973447 -0.054138 4.49984383 -0.09285491 6.75 -0.125 C8.00296875 -0.14820313 9.2559375 -0.17140625 10.546875 -0.1953125 C14 0 14 0 18 2 C12.06 2.33 6.12 2.66 0 3 C0 2.01 0 1.02 0 0 Z " fill="#032558" transform="translate(451,416)"/>
<path d="M0 0 C0.66 0.66 1.32 1.32 2 2 C1.65066406 2.51949219 1.30132812 3.03898437 0.94140625 3.57421875 C-2.54055504 8.87724314 -2.54055504 8.87724314 -4 15 C-4.99 15 -5.98 15 -7 15 C-5.79022851 8.7311841 -3.96347905 5.00649985 0 0 Z " fill="#032557" transform="translate(488,344)"/>
<path d="M0 0 C0.33 0 0.66 0 1 0 C1.66 5.94 2.32 11.88 3 18 C-0.75188566 12.99748578 -1.30175732 9.68905281 -0.5625 3.625 C-0.376875 2.42875 -0.19125 1.2325 0 0 Z " fill="#011F54" transform="translate(497,571)"/>
<path d="M0 0 C3.81684226 1.55500981 6.19195732 4.03595495 9 7 C8.67 7.66 8.34 8.32 8 9 C6.66079162 7.88200014 5.32877444 6.75538103 4 5.625 C2.88625 4.68527344 2.88625 4.68527344 1.75 3.7265625 C1.1725 3.15679687 0.595 2.58703125 0 2 C0 1.34 0 0.68 0 0 Z " fill="#04295B" transform="translate(488,383)"/>
<path d="M0 0 C4.20626034 1.50223584 5.73900021 4.28550034 8 8 C7.01 8 6.02 8 5 8 C0 2.65116279 0 2.65116279 0 0 Z " fill="#092964" transform="translate(398,635)"/>
<path d="M0 0 C-1.45537568 0.83848804 -2.91440373 1.67063934 -4.375 2.5 C-5.59316406 3.19609375 -5.59316406 3.19609375 -6.8359375 3.90625 C-9 5 -9 5 -11 5 C-11 4.34 -11 3.68 -11 3 C-4.03571429 -1.41964286 -4.03571429 -1.41964286 0 0 Z " fill="#072960" transform="translate(629,626)"/>
<path d="M0 0 C0.33 0 0.66 0 1 0 C2.03863773 6.23182639 1.83288874 11.74692761 1 18 C0.67 18 0.34 18 0 18 C-0.1954625 15.75067773 -0.38108226 13.50049858 -0.5625 11.25 C-0.66691406 9.99703125 -0.77132812 8.7440625 -0.87890625 7.453125 C-0.97876723 4.60547636 -0.90584295 2.65713933 0 0 Z " fill="#0E315D" transform="translate(626,438)"/>
<path d="M0 0 C4.455 2.97 4.455 2.97 9 6 C7.68 6.33 6.36 6.66 5 7 C2.25 5.25 2.25 5.25 0 3 C0 2.01 0 1.02 0 0 Z " fill="#03275F" transform="translate(428,611)"/>
<path d="M0 0 C0.33 0.66 0.66 1.32 1 2 C1.66 2 2.32 2 3 2 C3.66 4.31 4.32 6.62 5 9 C4.34 9.66 3.68 10.32 3 11 C2.49384702 9.73160474 1.99530901 8.46016898 1.5 7.1875 C1.2215625 6.47980469 0.943125 5.77210938 0.65625 5.04296875 C0 3 0 3 0 0 Z " fill="#052F56" transform="translate(498,587)"/>
<path d="M0 0 C1.27875 -0.061875 2.5575 -0.12375 3.875 -0.1875 C4.95394531 -0.23970703 4.95394531 -0.23970703 6.0546875 -0.29296875 C6.69664062 -0.19628906 7.33859375 -0.09960938 8 0 C8.66 0.99 9.32 1.98 10 3 C6.7 3 3.4 3 0 3 C0 2.01 0 1.02 0 0 Z " fill="#0A3160" transform="translate(559,447)"/>
<path d="M0 0 C3.3 0.33 6.6 0.66 10 1 C10 1.33 10 1.66 10 2 C6.37 2.33 2.74 2.66 -1 3 C-0.67 2.01 -0.34 1.02 0 0 Z " fill="#012A5A" transform="translate(484,414)"/>
<path d="M0 0 C1.875 0.1875 1.875 0.1875 4 1 C5.25 3.5625 5.25 3.5625 6 6 C5.01 6 4.02 6 3 6 C3 5.34 3 4.68 3 4 C2.34 4 1.68 4 1 4 C0.67 2.68 0.34 1.36 0 0 Z " fill="#001446" transform="translate(376,553)"/>
<path d="M0 0 C0.66 0.66 1.32 1.32 2 2 C-4.0546875 2.9765625 -4.0546875 2.9765625 -6 3 C-6.66 2.34 -7.32 1.68 -8 1 C-5.23749964 -0.38125018 -3.05268901 -0.19079306 0 0 Z " fill="#012656" transform="translate(420,420)"/>
<path d="" fill="#000000" transform="translate(0,0)"/>
<path d="" fill="#000000" transform="translate(0,0)"/>
<path d="" fill="#000000" transform="translate(0,0)"/>
<path d="" fill="#000000" transform="translate(0,0)"/>
</svg>
